<svg xmlns="http://www.w3.org/2000/svg" width="150" viewBox="0 0 150 150" height="150" version="1.0"><defs><clipPath id="a"><path d="M 45 17.011719 L 125.96875 17.011719 L 125.96875 75 L 45 75 Z M 45 17.011719"/></clipPath><clipPath id="b"><path d="M 45 56 L 125.96875 56 L 125.96875 114 L 45 114 Z M 45 56"/></clipPath><clipPath id="c"><path d="M 24.023438 75.851562 L 104.6875 75.851562 L 104.6875 133.261719 L 24.023438 133.261719 Z M 24.023438 75.851562"/></clipPath></defs><g clip-path="url(#a)"><path fill="#00C2CB" d="M 97.277344 56.300781 C 94.535156 56.300781 93.609375 55.914062 85.042969 50.882812 C 82.648438 49.488281 79.714844 47.785156 76.085938 45.695312 C 79.714844 43.644531 82.609375 41.941406 85.003906 40.546875 C 93.6875 35.515625 94.613281 35.089844 97.277344 35.089844 C 103.105469 35.089844 107.8125 39.851562 107.851562 45.734375 C 107.8125 51.578125 103.066406 56.300781 97.277344 56.300781 Z M 125.914062 45.734375 C 125.914062 45.734375 125.914062 45.65625 125.914062 45.617188 C 125.875 29.824219 113.023438 17.011719 97.277344 17.011719 C 89.328125 17.011719 85.234375 19.371094 73.191406 26.417969 C 67.480469 29.746094 59.648438 34.3125 48.339844 40.46875 C 46.449219 41.515625 45.25 43.488281 45.25 45.695312 C 45.25 47.863281 46.449219 49.875 48.339844 50.921875 C 59.800781 57.152344 67.710938 61.757812 73.464844 65.128906 C 85.738281 72.289062 89.441406 74.417969 97.316406 74.417969 C 113.0625 74.417969 125.914062 61.527344 125.914062 45.734375"/></g><path fill="#5CE1E6" d="M 52.660156 54.714844 C 55.402344 54.714844 56.328125 55.101562 64.933594 60.132812 C 67.328125 61.527344 70.261719 63.230469 73.886719 65.28125 C 70.261719 67.335938 67.367188 69 64.972656 70.433594 C 56.289062 75.464844 55.363281 75.890625 52.699219 75.890625 C 46.871094 75.890625 42.164062 71.128906 42.164062 65.242188 C 42.125 59.4375 46.871094 54.714844 52.660156 54.714844 Z M 76.746094 84.597656 C 82.457031 81.269531 90.292969 76.703125 101.601562 70.507812 C 103.492188 69.464844 104.6875 67.488281 104.6875 65.28125 C 104.6875 63.113281 103.492188 61.101562 101.601562 60.058594 C 90.136719 53.824219 82.261719 49.21875 76.511719 45.851562 C 64.238281 38.6875 60.535156 36.558594 52.660156 36.558594 C 36.875 36.558594 24.023438 49.449219 24.023438 65.242188 L 24.023438 65.320312 C 24.0625 81.113281 36.914062 93.929688 52.660156 93.929688 C 60.613281 94.007812 64.664062 91.644531 76.746094 84.597656"/><g clip-path="url(#b)"><path fill="#7ED957" d="M 97.277344 95.515625 C 94.535156 95.515625 93.609375 95.128906 85.042969 90.097656 C 82.648438 88.703125 79.714844 87 76.085938 84.910156 C 79.714844 82.855469 82.609375 81.15625 85.003906 79.761719 C 93.6875 74.726562 94.613281 74.304688 97.277344 74.304688 C 103.105469 74.304688 107.8125 79.066406 107.851562 84.949219 C 107.8125 90.832031 103.066406 95.515625 97.277344 95.515625 Z M 125.914062 84.949219 C 125.914062 84.949219 125.914062 84.871094 125.914062 84.832031 C 125.875 69.039062 113.023438 56.226562 97.277344 56.226562 C 89.328125 56.226562 85.234375 58.585938 73.191406 65.628906 C 67.480469 68.960938 59.648438 73.527344 48.339844 79.683594 C 46.449219 80.726562 45.25 82.703125 45.25 84.910156 C 45.25 87.078125 46.449219 89.089844 48.339844 90.136719 C 59.800781 96.367188 67.710938 100.972656 73.464844 104.34375 C 85.738281 111.503906 89.441406 113.632812 97.316406 113.632812 C 113.0625 113.671875 125.914062 100.78125 125.914062 84.949219"/></g><g clip-path="url(#c)"><path fill="#C9E265" d="M 52.660156 94.007812 C 55.402344 94.007812 56.328125 94.394531 64.933594 99.425781 C 67.328125 100.820312 70.261719 102.523438 73.886719 104.574219 C 70.296875 106.625 67.367188 108.289062 64.972656 109.683594 C 56.289062 114.71875 55.363281 115.144531 52.699219 115.144531 C 46.871094 115.144531 42.164062 110.382812 42.164062 104.496094 C 42.125 98.730469 46.871094 94.007812 52.660156 94.007812 Z M 76.746094 123.890625 C 82.457031 120.5625 90.292969 115.996094 101.601562 109.800781 C 103.492188 108.757812 104.6875 106.78125 104.6875 104.574219 C 104.6875 102.40625 103.492188 100.394531 101.601562 99.347656 C 90.136719 93.078125 82.226562 88.507812 76.472656 85.140625 C 64.203125 77.980469 60.496094 75.851562 52.621094 75.851562 C 36.875 75.890625 24.023438 88.78125 24.023438 104.574219 L 24.023438 104.652344 C 24.0625 120.445312 36.914062 133.257812 52.660156 133.257812 C 60.613281 133.296875 64.664062 130.9375 76.746094 123.890625"/></g></svg>